<svg xmlns="http://www.w3.org/2000/svg" width="33.161" height="49.509" viewBox="0 0 33.161 49.509">
  <path id="mouse-alt" d="M19.344,0H13.817C6.186,0,0,6.927,0,15.472V34.038c0,8.545,6.186,15.472,13.817,15.472h5.527c7.631,0,13.817-6.927,13.817-15.472V15.472C33.161,6.927,26.974,0,19.344,0ZM30.4,34.038c-.007,6.833-4.952,12.37-11.054,12.377H13.817C7.715,46.408,2.77,40.87,2.763,34.038V15.472C2.77,8.639,7.715,3.1,13.817,3.094h5.527C25.446,3.1,30.39,8.639,30.4,15.472ZM16.58,7.736a4.419,4.419,0,0,0-4.145,4.642v3.094a4.414,4.414,0,0,0,4.145,4.642,4.414,4.414,0,0,0,4.145-4.642V12.377A4.419,4.419,0,0,0,16.58,7.736Zm1.382,7.736a1.471,1.471,0,0,1-1.382,1.547A1.471,1.471,0,0,1,15.2,15.472V12.377A1.471,1.471,0,0,1,16.58,10.83a1.471,1.471,0,0,1,1.382,1.547Z" fill="#fff"/>
</svg>
